# xmcd CD database file
#
# Track frame offsets:
#	150
#	17907
#	44520
#	69040
#	98507
#	129452
#	147812
#	178302
#	195562
#	219597
#	245307
#	271179
#	310398
#
# Disc length: 4426 seconds
#
# Revision: 0
# Processed by: cddbd v1.5.2PL0 Copyright (c) Steve Scherf et al.
# Submitted via: CDex 1.70beta2
#
DISCID=b511480d
DTITLE=VARIOS - EUROPEAN NEW INSTRUMENTAL MUSIC
DYEAR=1900
DGENRE=New Age
TTITLE0=01 CIVILIZED ILLUSIONS
TTITLE1=02 UNCERTAIN POSITIONS
TTITLE2=03 CELESTIAL MIRAGE
TTITLE3=04 FREE FALL
TTITLE4=05 WAVES
TTITLE5=06 BLUE RED HORIZONS
TTITLE6=07 SPACE QUEST
TTITLE7=08 BOLERO CARMIN
TTITLE8=09 COLOURS OF LOVE
TTITLE9=10 DETOUR
TTITLE10=11 MOONTALK
TTITLE11=12 VOICE OF AUTUMN
TTITLE12=13 SHIKARA
EXTD=
EXTT0=
EXTT1=
EXTT2=
EXTT3=
EXTT4=
EXTT5=
EXTT6=
EXTT7=
EXTT8=
EXTT9=
EXTT10=
EXTT11=
EXTT12=
PLAYORDER=
